<?xml version="1.0" standalone="no"?><!DOCTYPE svg PUBLIC "-//W3C//DTD SVG 1.1//EN" "http://www.w3.org/Graphics/SVG/1.1/DTD/svg11.dtd"><svg t="1666843433831" class="icon" viewBox="0 0 1024 1024" version="1.1" xmlns="http://www.w3.org/2000/svg" p-id="1229" xmlns:xlink="http://www.w3.org/1999/xlink" width="200" height="200"><path d="M95.0784 837.0688H925.184v51.2H95.0784z" fill="#5B90EF" p-id="1230"></path><path d="M302.7456 743.2704H201.5232c-11.3152 0-20.48-9.1648-20.48-20.48V501.1968c0-11.3152 9.1648-20.48 20.48-20.48h101.2224c11.3152 0 20.48 9.1648 20.48 20.48v221.5936c0 11.3152-9.1648 20.48-20.48 20.48zM560.7424 743.2704H459.5712c-11.3152 0-20.48-9.1648-20.48-20.48v-130.3552c0-11.3152 9.1648-20.48 20.48-20.48h101.2224c11.3152 0 20.48 9.1648 20.48 20.48v130.3552c-0.0512 11.3152-9.216 20.48-20.5312 20.48zM817.4592 743.2704h-101.2224c-11.3152 0-20.48-9.1648-20.48-20.48V472.2688c0-11.3152 9.1648-20.48 20.48-20.48h101.2224c11.3152 0 20.48 9.1648 20.48 20.48v250.5216c0 11.3152-9.1648 20.48-20.48 20.48z" fill="#DCEDFF" p-id="1231"></path><path d="M302.7456 768.8704H201.5232c-25.3952 0-46.08-20.6848-46.08-46.08V270.9504c0-25.3952 20.6848-46.08 46.08-46.08h101.2224c25.3952 0 46.08 20.6848 46.08 46.08v451.84c0 25.3952-20.6848 46.08-46.08 46.08z m-96.1024-51.2h90.9824V276.0704H206.6432v441.6zM560.7424 768.8704H459.5712c-25.3952 0-46.08-20.6848-46.08-46.08V442.1632c0-25.3952 20.6848-46.08 46.08-46.08h101.2224c25.3952 0 46.08 20.6848 46.08 46.08v280.6272c-0.0512 25.3952-20.736 46.08-46.1312 46.08z m-96.0512-51.2h90.9824V447.2832H464.6912v270.3872zM817.4592 768.8704h-101.2224c-25.3952 0-46.08-20.6848-46.08-46.08V216.6784c0-25.3952 20.6848-46.08 46.08-46.08h101.2224c25.3952 0 46.08 20.6848 46.08 46.08v506.112c0 25.3952-20.6848 46.08-46.08 46.08z m-96.1024-51.2h90.9824V221.7984h-90.9824v495.872z" fill="#5B90EF" p-id="1232"></path></svg>